<?xml version="1.0" encoding="utf-8"?>
<!-- Generator: Adobe Illustrator 25.1.0, SVG Export Plug-In . SVG Version: 6.00 Build 0)  -->
<svg version="1.0" id="Warstwa_1" xmlns="http://www.w3.org/2000/svg" xmlns:xlink="http://www.w3.org/1999/xlink" x="0px" y="0px"
	 viewBox="0 0 221 86.3" style="enable-background:new 0 0 221 86.3;" xml:space="preserve">
<style type="text/css">
	.st0{fill:#E98E5C;}
</style>
<g>
	<path class="st0" d="M33.9,13.2c-8.6,0-10.3,7.1-10.3,16.7c0,8.9,1.8,16.5,10.2,16.5c8.1,0,10-7.1,10-16.7
		C43.7,20.3,42,13.2,33.9,13.2 M34,11.7c9.5,0,15.6,6.6,15.6,17.8c0,10.5-4.7,17.1-13.5,18.1v0.3c2.6,0.5,3.5,2,4.2,4.2
		c0.9,2.7,1.4,4.3,3,4.3c1.3,0,2-0.9,2.3-3.6l1.1,0.1c-0.2,3.2-1.5,5.7-4.9,5.7c-4.3,0-5.4-2.5-6.4-6.1c-0.8-3-1.4-3.7-2.3-3.7
		c-0.9,0-1.9,0.9-3.3,2l-0.7-0.7c1-0.9,2.1-1.7,3.1-2.1v-0.2C22.8,47.2,17.7,41,17.7,30C17.7,18.9,24.4,11.7,34,11.7"/>
	<path class="st0" d="M72.8,47.5l-0.3-4.7C71.3,45.3,68.8,48,64,48c-4.6,0-7.6-2.3-7.6-8.4V24.8h-3.8v-1.3h8.7v16.6
		c0,3.8,0.7,6,4.2,6c3.6,0,6.9-3.9,6.9-7.7V24.8h-3.8v-1.3h8.7v22.7h3.9v1.3H72.8z"/>
	<path class="st0" d="M94.7,24.2c-5.1,0-6.1,5-6.1,11c0,6.1,1.1,11.5,6.1,11.5c4.9,0,6-4.7,6-11.4C100.7,29.4,99.7,24.2,94.7,24.2
		 M94.8,23c7.1,0,11.2,3.9,11.2,12.3c0,7.8-4.1,12.6-11.4,12.6c-7.2,0-11.3-4.5-11.3-12.4C83.3,27.5,87.9,23,94.8,23"/>
	<path class="st0" d="M117.6,33.9v12.3h5.3v1.3H109v-1.3h3.8V24.8H109v-1.3h8.6v4.8c1-3.6,3.3-5.3,6.2-5.3c3.1,0,5.1,1.9,5.1,4.6
		c0,2.9-1.6,3.9-3.2,3.9c-1.7,0-2.8-1.2-2.8-3.2c0-0.5,0.1-0.9,0.2-1.4h1.6c0.1-0.3,0.1-0.6,0.1-0.8c0-1.1-0.8-1.3-1.6-1.3
		C120.1,24.9,117.6,29.4,117.6,33.9"/>
	<path class="st0" d="M150.6,47.5l-0.3-4.7c-1.2,2.5-3.7,5.2-8.5,5.2c-4.6,0-7.6-2.3-7.6-8.4V24.8h-3.8v-1.3h8.7v16.6
		c0,3.8,0.7,6,4.2,6c3.6,0,6.9-3.9,6.9-7.7V24.8h-3.8v-1.3h8.7v22.7h3.9v1.3H150.6z"/>
	<path class="st0" d="M169.6,23.5v4.6c1.2-2.3,3.2-5.1,8.2-5.1c3.8,0,6.2,1.7,7,5.6c1.2-2.6,3.6-5.6,8.5-5.6c4.1,0,7.2,2.2,7.2,8.4
		v14.8h3.8v1.3h-12.4v-1.3h3.8v-16c0-3.8-0.9-5.4-3.7-5.4c-3.9,0-6.8,3.4-6.8,8v13.3h3.8v1.3h-12.4v-1.3h3.8V30.5
		c0-4-0.9-5.6-3.7-5.6c-3.9,0-6.8,3.4-6.8,8v13.3h3.8v1.3H161v-1.3h3.8V24.8H161v-1.3H169.6z"/>
	<path class="st0" d="M61,72.1c-0.5,0.2-1.1,0.4-1.7,0.4c-1.2,0-1.7-0.6-1.7-1.7v-4.5c0-0.1,0-0.1-0.1-0.1h-1v-0.6
		c1-0.1,1.2-0.5,1.4-1.8h0.6v1.5c0,0.1,0,0.1,0.1,0.1h2v0.8h-2.1v4.3c0,0.9,0.2,1.2,1,1.2c0.4,0,0.9-0.1,1.3-0.3L61,72.1z"/>
	<path class="st0" d="M66.6,72.3v-0.6l0.7-0.1c0.2,0,0.2-0.1,0.2-0.3V68c0-1.3-0.4-2-1.4-2c-1,0-1.9,0.6-2.3,1v4.2
		c0,0.2,0,0.2,0.2,0.3l0.8,0.1v0.6H62v-0.6l0.7-0.1c0.2,0,0.2-0.1,0.2-0.3v-8.1c0-0.1,0-0.2-0.2-0.3l-0.8-0.3l0.1-0.6h1.8v4.1
		c0.7-0.5,1.5-0.9,2.5-0.9c1.4,0,2.1,0.7,2.1,2.6v3.5c0,0.2,0,0.2,0.2,0.3l0.8,0.1v0.6H66.6z"/>
	<path class="st0" d="M75.2,68.3c0-1.7-0.8-2.2-1.8-2.2c-1,0-1.9,0.6-2,2.2H75.2z M75.9,71.9c-0.6,0.3-1.4,0.6-2.3,0.6
		c-2.4,0-3.1-1.6-3.1-3.6c0-2.4,1.3-3.5,3-3.5c1.6,0,2.7,0.9,2.7,3.2c0,0.2,0,0.4,0,0.6h-4.7c0,1.5,0.6,2.6,2.3,2.6
		c0.8,0,1.3-0.1,1.9-0.5L75.9,71.9z"/>
	<path class="st0" d="M88.9,72.3v-0.6l0.7-0.1c0.2,0,0.2-0.1,0.2-0.3v-3.2c0-1.3-0.2-2-1.3-2c-0.8,0-1.6,0.4-2.1,0.8
		c0,0.3,0.1,0.6,0.1,0.9v3.6c0,0.2,0,0.2,0.2,0.3l0.7,0.1v0.6h-2.7v-0.6l0.7-0.1c0.2,0,0.2-0.1,0.2-0.3V68c0-1.3-0.2-2-1.2-2
		c-1,0-1.9,0.6-2.2,1v4.2c0,0.2,0,0.2,0.2,0.3l0.8,0.1v0.6h-2.8v-0.6l0.7-0.1c0.2,0,0.2-0.1,0.2-0.3v-4.8c0-0.1,0-0.2-0.2-0.3
		L80.3,66l0.1-0.6H82l0.1,0.8l0,0c0.6-0.4,1.4-1,2.5-1c0.9,0,1.3,0.3,1.6,0.9c0.6-0.5,1.5-0.9,2.5-0.9c1.6,0,2,1,2,2.6v3.5
		c0,0.2,0,0.2,0.2,0.3l0.8,0.1v0.6H88.9z"/>
	<path class="st0" d="M97.4,68.3c0-1.7-0.8-2.2-1.8-2.2c-1,0-1.9,0.6-2,2.2H97.4z M98.1,71.9c-0.6,0.3-1.4,0.6-2.3,0.6
		c-2.4,0-3.1-1.6-3.1-3.6c0-2.4,1.3-3.5,3-3.5c1.6,0,2.7,0.9,2.7,3.2c0,0.2,0,0.4,0,0.6h-4.7c0,1.5,0.6,2.6,2.3,2.6
		c0.8,0,1.3-0.1,1.9-0.5L98.1,71.9z"/>
	<path class="st0" d="M104.2,68.3c0-1.7-0.8-2.2-1.8-2.2c-1,0-1.9,0.6-2,2.2H104.2z M104.9,71.9c-0.6,0.3-1.4,0.6-2.3,0.6
		c-2.4,0-3.1-1.6-3.1-3.6c0-2.4,1.3-3.5,3-3.5c1.6,0,2.7,0.9,2.7,3.2c0,0.2,0,0.4,0,0.6h-4.7c0,1.5,0.6,2.6,2.3,2.6
		c0.8,0,1.3-0.1,1.9-0.5L104.9,71.9z"/>
	<path class="st0" d="M110.7,72.1c-0.5,0.2-1.1,0.4-1.7,0.4c-1.2,0-1.7-0.6-1.7-1.7v-4.5c0-0.1,0-0.1-0.1-0.1h-1v-0.6
		c1-0.1,1.2-0.5,1.4-1.8h0.6v1.5c0,0.1,0,0.1,0.1,0.1h2v0.8h-2.1v4.3c0,0.9,0.2,1.2,1,1.2c0.4,0,0.9-0.1,1.3-0.3L110.7,72.1z"/>
	<path class="st0" d="M112.9,63.7c-0.5,0-0.7-0.3-0.7-0.7s0.3-0.7,0.7-0.7c0.5,0,0.7,0.3,0.7,0.7S113.3,63.7,112.9,63.7 M111.4,72.3
		v-0.6l1-0.1c0.2,0,0.2-0.1,0.2-0.3v-4.8c0-0.1,0-0.2-0.2-0.3l-0.8-0.3l0.1-0.6h1.8v5.9c0,0.2,0,0.2,0.2,0.3l0.9,0.1v0.6H111.4z"/>
	<path class="st0" d="M120.2,72.3v-0.6l0.7-0.1c0.2,0,0.2-0.1,0.2-0.3v-3.2c0-1.4-0.4-2-1.4-2c-1,0-1.9,0.6-2.3,1v4.2
		c0,0.2,0,0.2,0.2,0.3l0.8,0.1v0.6h-2.8v-0.6l0.7-0.1c0.2,0,0.2-0.1,0.2-0.3v-4.8c0-0.1,0-0.2-0.2-0.3l-0.8-0.3l0.1-0.6h1.5l0.1,0.8
		l0,0c0.7-0.5,1.5-1,2.6-1c1.6,0,2.1,1,2.1,2.6v3.5c0,0.2,0,0.2,0.2,0.3l0.8,0.1v0.6H120.2z"/>
	<path class="st0" d="M127.1,66c-1.1,0-1.9,0.6-1.9,1.7c0,0.9,0.5,1.7,1.9,1.7c1.2,0,1.9-0.7,1.9-1.7C128.9,66.6,128.2,66,127.1,66
		 M125.7,72.1c-0.4,0.3-0.8,0.8-0.8,1.4c0,0.8,0.9,1,2.4,1c0.3,0,0.5,0,0.7-0.1c0.9-0.1,1.4-0.5,1.4-1.2c0-0.7-0.5-0.9-1.5-1
		L125.7,72.1z M129.3,66.2c0.3,0.4,0.5,0.8,0.5,1.4c0,1.6-1.2,2.5-2.8,2.5c-0.5,0-0.9-0.1-1.2-0.2l-0.6,1.3l2.4,0.2
		c1.9,0.1,2.8,0.4,2.8,1.8c0,1.3-1.1,2.1-3.4,2.1c-2.3,0-3-0.6-3-1.7c0-0.7,0.4-1.1,0.9-1.7c-0.4-0.1-0.6-0.3-0.6-0.6
		c0-0.2,0.1-0.4,0.3-0.7l0.7-1c-0.6-0.3-0.9-1-0.9-1.9c0-1.5,1.1-2.5,2.8-2.5c0.5,0,0.9,0.1,1.2,0.1h2.3v0.7L129.3,66.2z"/>
	<path class="st0" d="M136.2,70.7c0.5,0.5,1.3,1,2,1c1.5,0,2-1.1,2-3c0-2-0.8-2.6-1.8-2.6c-0.9,0-1.8,0.6-2.2,1V70.7z M134.5,75.1
		v-0.6l0.6-0.1c0.2,0,0.2-0.1,0.2-0.3v-7.7c0-0.1,0-0.2-0.2-0.3l-0.8-0.3l0.1-0.6h1.5l0.1,0.8l0,0c0.6-0.5,1.5-1,2.5-1
		c1.5,0,2.5,1,2.5,3.3c0,2.5-0.9,3.6-2.3,3.8c-0.2,0-0.4,0-0.5,0c-0.8,0-1.5-0.3-2.1-0.8l0,0v2.5c0,0.2,0,0.3,0.2,0.3l1.2,0.1v0.6
		H134.5z"/>
	<path class="st0" d="M142.3,72.3v-0.6l0.9-0.1c0.2,0,0.2-0.1,0.2-0.3v-8.1c0-0.1,0-0.2-0.2-0.3l-0.8-0.3l0.1-0.6h1.8v9.2
		c0,0.2,0,0.2,0.2,0.3l0.9,0.1v0.6H142.3z"/>
	<path class="st0" d="M150.7,69.1l-1.8,0.2c-1.3,0.1-1.6,0.5-1.6,1.3c0,0.8,0.4,1.1,1.1,1.1c0.9,0,1.8-0.6,2.3-1.3V69.1z
		 M150.9,72.3l-0.1-0.9l0,0c-0.7,0.7-1.5,1.1-2.5,1.1c-1.7,0-1.9-1.2-1.9-1.8c0-1.3,0.8-1.9,2.4-2.1l1.9-0.2v-0.8
		c0-1.1-0.2-1.6-1.5-1.6c-0.9,0-1.6,0-1.6,1.1l-0.9-0.1c0-1.6,1.5-1.8,2.5-1.8c1.8,0,2.4,0.5,2.4,2.4v3.7c0,0.2,0,0.2,0.2,0.3
		l0.7,0.1v0.6H150.9z"/>
	<path class="st0" d="M158.9,71.9c-0.5,0.3-1.4,0.5-2.2,0.5c-2.2,0-3.2-1.5-3.2-3.5c0-2.6,1.5-3.6,3.5-3.6c1,0,1.7,0.3,1.9,0.4v1.7
		l-0.7,0l-0.2-0.9c0-0.1,0-0.1-0.1-0.2c-0.2-0.1-0.6-0.1-1-0.1c-1.3,0-2.4,0.8-2.4,2.8c0,1.9,0.9,2.8,2.4,2.8c0.7,0,1.3-0.2,1.7-0.5
		L158.9,71.9z"/>
	<path class="st0" d="M164.5,68.3c0-1.7-0.8-2.2-1.8-2.2c-1,0-1.9,0.6-2,2.2H164.5z M165.2,71.9c-0.6,0.3-1.4,0.6-2.3,0.6
		c-2.4,0-3.1-1.6-3.1-3.6c0-2.4,1.3-3.5,3-3.5c1.6,0,2.7,0.9,2.7,3.2c0,0.2,0,0.4,0,0.6h-4.7c0,1.5,0.6,2.6,2.3,2.6
		c0.8,0,1.3-0.1,1.9-0.5L165.2,71.9z"/>
</g>
</svg>
