<svg xmlns="http://www.w3.org/2000/svg" width="100" height="77" viewBox="0 0 100 77"><g><g><g><path fill="#fff" d="M5.412 64.553h-3.39c-.085 0-.126-.044-.126-.13v-4.558c0-.085.041-.13.127-.13h3.389c1.682 0 2.684.896 2.684 2.41 0 1.512-1.002 2.408-2.684 2.408zm4.688 7.904c.149 0 .213-.127.127-.255l-3.09-6.116c1.748-.554 2.856-1.982 2.856-3.942 0-2.513-1.833-4.176-4.539-4.176H.211c-.126 0-.211.086-.211.213v14.063c0 .128.085.213.211.213h1.472c.128 0 .213-.085.213-.213V66.45c0-.085.041-.129.127-.129H5.22l2.898 5.924c.064.15.127.213.276.213z"/></g><g><path fill="#fff" d="M14.242 66.47c-.085 0-.129-.043-.129-.128 0-.469.044-.832.15-1.15.341-1.022 1.193-1.598 2.344-1.598 1.15 0 2.002.576 2.344 1.598.106.318.15.681.15 1.15 0 .085-.044.128-.13.128zm-1.62 3.452c.555 1.769 2.025 2.77 4.09 2.77 1.791 0 3.175-.724 3.986-1.748.085-.105.085-.213-.02-.298l-.875-.788c-.106-.085-.214-.063-.319.042-.554.64-1.408 1.13-2.621 1.13-1.257 0-2.173-.598-2.58-1.769-.104-.342-.17-.681-.17-1.236 0-.085.044-.127.13-.127h6.455c.15 0 .234-.085.234-.214 0-1.555-.105-2.258-.318-2.92-.576-1.747-2.047-2.749-4.007-2.749-1.94 0-3.43.981-4.007 2.75-.212.618-.319 1.406-.319 2.58 0 1.17.129 1.916.34 2.577z"/></g><g><path fill="#fff" d="M23.57 71.158a.207.207 0 0 1 0-.299l.873-.937a.204.204 0 0 1 .298 0 4.962 4.962 0 0 0 3.155 1.171c1.492 0 2.236-.637 2.236-1.555 0-.81-.383-1.256-1.982-1.427l-1.085-.107c-2.004-.213-3.047-1.215-3.047-2.877 0-1.938 1.384-3.112 3.793-3.112 1.49 0 2.77.493 3.622 1.13.107.065.107.193.042.3l-.723.915c-.088.108-.193.108-.298.044-.662-.427-1.706-.832-2.75-.832-1.28 0-1.938.575-1.938 1.406 0 .81.488 1.237 2.001 1.386l1.066.106c2.068.19 3.069 1.235 3.069 2.876 0 2.003-1.448 3.346-4.113 3.346-1.982 0-3.387-.81-4.219-1.534z"/></g><g><path fill="#fff" d="M34.972 72.457c-.128 0-.213-.085-.213-.213v-9.78c0-.13.085-.213.213-.213h1.364c.13 0 .213.084.213.213v9.78c0 .128-.084.213-.213.213zm-.044-12.507c-.126 0-.21-.085-.21-.214V58.18c0-.127.084-.213.21-.213h1.45c.128 0 .214.086.214.213v1.555c0 .129-.086.214-.214.214z"/></g><g><path fill="#fff" d="M39.691 65.21c0-2.534.15-3.494.383-4.217.726-2.174 2.302-3.24 4.583-3.24 1.98 0 3.537.917 4.366 2.684.044.108.044.215-.062.278l-.704.342c-.107.063-.212.02-.276-.086-.661-1.236-1.684-2.067-3.324-2.067-1.77 0-2.857.83-3.41 2.408-.192.576-.318 1.47-.318 3.899 0 2.43.126 3.324.318 3.9.553 1.578 1.64 2.408 3.41 2.408 1.64 0 2.663-.83 3.324-2.068.064-.106.17-.149.276-.085l.704.342c.106.064.106.17.062.276-.829 1.77-2.386 2.685-4.366 2.685-2.28 0-3.857-1.065-4.583-3.239-.234-.723-.383-1.683-.383-4.22z"/></g><g><path fill="#fff" d="M58.234 69.326c0 1.384-1.172 2.28-2.919 2.28-1.62 0-2.516-.682-2.516-1.96 0-1.345.854-2.005 2.877-2.005h2.431c.085 0 .127.043.127.128v1.557zm-5.198-5.413c.595-.49 1.32-.768 2.555-.768 2.069 0 2.643.682 2.643 2.344v1.045c0 .085-.042.127-.127.127h-2.58c-2.471 0-3.855.98-3.855 3.004 0 1.982 1.364 3.005 3.409 3.005 1.662 0 2.748-.64 3.153-1.492h.02v1.066c0 .128.087.213.214.213h.681c.13 0 .214-.085.214-.213v-6.798c0-2.492-1.066-3.366-3.707-3.366-1.43 0-2.515.362-3.24.98-.105.085-.127.193-.063.299l.36.532c.086.106.215.106.323.022z"/></g><g><path fill="#fff" d="M67.311 71.562c-1.278 0-2.215-.597-2.599-1.789-.192-.555-.278-1.279-.278-2.387 0-1.109.086-1.854.278-2.409.384-1.191 1.32-1.788 2.6-1.788 1.342 0 2.215.638 2.598 1.788.213.64.277 1.493.277 2.409 0 .895-.064 1.747-.277 2.387-.383 1.151-1.256 1.789-2.599 1.789zm-3.09 4.731c.128 0 .213-.086.213-.213v-5.072h.022c.49.96 1.406 1.662 3.09 1.662 1.79 0 2.919-.81 3.451-2.429.256-.83.362-1.726.362-2.855 0-1.15-.106-2.046-.362-2.877-.532-1.618-1.662-2.429-3.451-2.429-1.684 0-2.6.703-3.09 1.662h-.022v-1.235c0-.129-.085-.214-.213-.214h-.724c-.128 0-.212.085-.212.214V76.08c0 .127.084.213.212.213z"/></g><g><path fill="#fff" d="M74.781 72.457c-.129 0-.214-.085-.214-.213v-9.737c0-.128.085-.214.214-.214h.723c.129 0 .214.086.214.214v9.737c0 .128-.085.213-.214.213zm-.107-12.87c-.127 0-.214-.085-.214-.213V58.18c0-.127.087-.213.214-.213h.938c.126 0 .211.086.211.213v1.193c0 .128-.085.213-.211.213z"/></g><g><path fill="#fff" d="M82.528 72.52c-1.917 0-2.641-.745-2.641-2.747v-6.33c0-.084-.043-.128-.128-.128h-1.066c-.127 0-.213-.085-.213-.212v-.596c0-.13.086-.214.213-.214h1.066c.085 0 .128-.043.128-.128v-2.918c0-.13.085-.214.212-.214h.725c.129 0 .214.085.214.214v2.918c0 .085.041.128.127.128h1.918c.127 0 .213.085.213.214v.596c0 .127-.086.212-.213.212h-1.918c-.086 0-.127.044-.127.129v6.265c0 1.364.468 1.703 1.64 1.703h.405c.127 0 .213.085.213.214v.682c0 .127-.086.213-.213.213z"/></g><g><path fill="#fff" d="M89.577 71.605c-1.62 0-2.516-.681-2.516-1.96 0-1.344.854-2.004 2.877-2.004h2.428c.088 0 .13.043.13.128v1.557c0 1.384-1.172 2.28-2.919 2.28zm-2.28-7.692c.595-.49 1.32-.768 2.556-.768 2.069 0 2.642.682 2.642 2.344v1.045c0 .085-.041.127-.129.127H89.79c-2.471 0-3.855.98-3.855 3.004 0 1.982 1.363 3.005 3.409 3.005 1.66 0 2.748-.64 3.152-1.492h.022v1.066c0 .128.086.213.213.213h.681c.129 0 .214-.085.214-.213v-6.798c0-2.492-1.066-3.366-3.708-3.366-1.428 0-2.514.362-3.24.98-.105.085-.126.193-.062.299l.36.532c.086.106.215.106.323.022z"/></g><g><path fill="#fff" d="M99.296 72.521c-1.534 0-2.108-.703-2.108-2.387V58.18c0-.127.085-.213.212-.213h.725c.127 0 .213.086.213.213v11.912c0 1 .319 1.32 1.086 1.32h.363c.129 0 .213.085.213.214v.681c0 .128-.084.213-.213.213z"/></g><g><path fill="#fff" d="M43.49 45.79h-5.951V18.656l5.95-4.284z"/></g><g><path fill="#fff" d="M62.462 45.15h-5.95V8.02l5.95-4.284z"/></g><g><path fill="#fff" d="M52.976 14.757V0l-5.95 4.284v30.628l5.95-4.284"/></g><g><path fill="#fff" d="M47.025 46.231h5.95v-10.71l-5.95 4.284z"/></g></g></g></svg>